Coordinates
version=1
nRows=5
nColumns=40
inDegrees=yes

Units are S.I. units (second, meters, Newtons, ...)
Angles are in degrees.

endheader
time	pelvis_tilt	pelvis_list	pelvis_rotation	pelvis_tx	pelvis_ty	pelvis_tz	hip_flexion_r	hip_adduction_r	hip_rotation_r	knee_angle_r	knee_angle_r_beta	ankle_angle_r	subtalar_angle_r	mtp_angle_r	hip_flexion_l	hip_adduction_l	hip_rotation_l	knee_angle_l	knee_angle_l_beta	ankle_angle_l	subtalar_angle_l	mtp_angle_l	lumbar_extension	lumbar_bending	lumbar_rotation	arm_flex_r	arm_add_r	arm_rot_r	elbow_flex_r	pro_sup_r	wrist_flex_r	wrist_dev_r	arm_flex_l	arm_add_l	arm_rot_l	elbow_flex_l	pro_sup_l	wrist_flex_l	wrist_dev_l
      6.84750000	     -3.21619126	     -7.23115338	     -5.41456373	      1.06615729	      0.91263167	      0.51453773	     24.28325520	      4.20369998	    -11.30697434	     24.08531938	     24.08531938	      4.19573796	     -3.75198842	     -4.16528870	      4.09652308	    -14.36675806	     -8.44501570	     46.31353727	     46.31353727	     13.67647683	    -18.86062254	      1.24704666	    -10.02054447	      8.90927158	      1.96771733	    -10.59988553	    -11.56581352	    -17.01162603	     19.94753958	     47.48802867	      0.00000000	      0.00000000	     20.70223072	    -15.71620057	     -6.84928771	     90.47267456	     48.13365701	      0.00000000	      0.00000000
      6.85885714	     -3.09018063	     -7.58028699	     -5.26833332	      1.06604203	      0.91414082	      0.51772534	     23.30804390	      4.71211186	    -11.55017066	     23.81934170	     23.81934170	      4.82331416	     -3.53509089	     -4.32343874	      6.07068240	    -15.35069490	     -7.49450834	     50.39938909	     50.39938909	     11.36178302	    -19.05781394	      1.86532068	    -10.21374495	      8.98195683	      2.08846166	     -9.13448107	    -11.27360829	    -16.90206690	     20.59324182	     47.46001826	      0.00000000	      0.00000000	     19.86438120	    -15.14448640	     -6.43849957	     89.84409635	     48.09334917	      0.00000000	      0.00000000
      6.87021429	     -3.22495124	     -7.71301421	     -5.02633048	      1.06558184	      0.91533539	      0.52028739	     22.59713618	      4.94720363	    -11.85847753	     23.44894081	     23.44894081	      5.43966445	     -3.15013250	     -4.38126281	      8.77547688	    -15.69370811	     -5.77738072	     54.79198392	     54.79198392	     11.46826585	    -19.04568174	      9.27749568	    -10.01848739	      8.96479412	      2.17662496	     -8.14583031	    -11.08361097	    -16.06975889	     22.33085218	     47.28373252	      0.00000000	      0.00000000	     19.14217084	    -14.57267849	     -6.06420204	     87.83875611	     48.05794942	      0.00000000	      0.00000000
      6.88157143	     -3.13838757	     -7.92909109	     -4.78336702	      1.06506991	      0.91666721	      0.52291526	     21.65682721	      5.29357466	    -12.06035080	     23.07756402	     23.07756402	      5.94945068	     -2.94147354	     -4.48507654	     10.87790601	    -16.29655517	     -4.64489572	     58.18194945	     58.18194945	      9.38532242	    -19.15173220	      9.75653319	    -10.19063434	      8.87787312	      2.21802007	     -6.58055329	    -10.84507033	    -15.92964783	     23.15801372	     47.24508135	      0.00000000	      0.00000000	     18.20770018	    -14.04269314	     -5.64119225	     86.93320604	     48.01045642	      0.00000000	      0.00000000
      6.89292857	     -3.21515112	     -8.04913248	     -4.47469148	      1.06434142	      0.91777547	      0.52509356	     20.88507605	      5.48304560	    -12.45276860	     22.65739341	     22.65739341	      6.44054992	     -2.52584088	     -4.63745392	     13.28821726	    -16.56574700	     -3.25455276	     61.32603386	     61.32603386	      8.35423567	    -19.17645002	     12.42884551	    -10.03004729	      8.89096438	      1.91336610	     -5.21601010	    -10.68314238	    -15.28940231	     25.27713662	     47.08792344	      0.00000000	      0.00000000	     17.47651600	    -13.73667925	     -5.43265461	     84.02499977	     47.94896614	      0.00000000	      0.00000000
